<svg t="1652334507491" class="icon" viewBox="0 0 1024 1024" version="1.1" xmlns="http://www.w3.org/2000/svg" p-id="3291" width="20" height="20"><path d="M511.814608 1023.999787a42.642813 42.642813 0 0 1-42.642813-39.657817c-9.807847-144.132709-113.216669-288.90506-204.47229-416.8335l-21.321407-29.210327A331.121446 331.121446 0 0 1 176.002453 336.384422a335.812155 335.812155 0 1 1 602.756167 203.193005l-19.828908 27.931043c-91.255621 127.92844-194.664443 272.700791-204.47229 416.8335a42.642813 42.642813 0 0 1-42.642814 39.657817z m0-938.141894A250.739742 250.739742 0 0 0 261.28808 336.384422a247.328317 247.328317 0 0 0 51.38459 151.381987l21.321407 30.276397c63.96422 89.976336 133.898434 187.628379 177.607317 291.890058 43.708884-104.261679 113.429883-201.913721 177.607318-291.890058l21.321407-28.997113A250.1001 250.1001 0 0 0 511.814608 85.857893z" fill="#d81e06" p-id="3292"></path><path d="M511.814608 276.044841a60.339581 60.339581 0 1 1-60.33958 60.339581 60.339581 60.339581 0 0 1 60.33958-60.339581m0-63.96422a124.303801 124.303801 0 1 0 124.303801 124.303801 124.303801 124.303801 0 0 0-124.303801-124.303801z" fill="#d81e06" p-id="3293"></path></svg>